# xmcd CD database file
#
# Track frame offsets:
#	150
#	14421
#	27870
#	41930
#	54240
#	67378
#	80507
#	93626
#	108186
#	119924
#	130641
#	142630
#	154102
#	166972
#	181685
#	195333
#	209640
#
# Disc length: 2985 seconds
#
# Revision: 2
# Processed by: cddbd v1.5.1PL0 Copyright (c) Steve Scherf et al.
# Submitted via: CDex 1.51
#
DISCID=e90ba711
DTITLE=Erroll Garner - Play Piano Play
DYEAR=1900
DGENRE=Jazz
TTITLE0=Travelin' Light
TTITLE1=Do Nothing Till You Here From Me
TTITLE2=My Old Flame
TTITLE3=I'll Get By
TTITLE4=I Cover The Waterfront
TTITLE5=I'll Be Seeing You
TTITLE6=No More
TTITLE7=Embraceable You
TTITLE8=As Time Goes By
TTITLE9=He's Funny That Way
TTITLE10=Lover Come Back To Me
TTITLE11=Billie's Blues
TTITLE12=On The Sunny Side Of The Street
TTITLE13=Lover Man
TTITLE14=I'm Yours
TTITLE15=I Can't Give You Anything But Love
TTITLE16=The Way You Look Tonight
EXTD=
EXTT0=
EXTT1=
EXTT2=
EXTT3=
EXTT4=
EXTT5=
EXTT6=
EXTT7=
EXTT8=
EXTT9=
EXTT10=
EXTT11=
EXTT12=
EXTT13=
EXTT14=
EXTT15=
EXTT16=
PLAYORDER=
